<svg width="30" height="30" viewBox="0 0 30 30" fill="none" xmlns="http://www.w3.org/2000/svg">
<g clip-path="url(#clip0_1922_550)">
<path d="M28.1999 13.5333H16.4668V1.79989C16.4668 0.990466 15.8096 0.333313 14.9999 0.333313C14.1905 0.333313 13.5333 0.990466 13.5333 1.79989V13.5333H1.79992C0.990497 13.5333 0.333344 14.1905 0.333344 14.9999C0.333344 15.8096 0.990497 16.4667 1.79992 16.4667H13.5333V28.1999C13.5333 29.0096 14.1905 29.6667 14.9999 29.6667C15.8096 29.6667 16.4668 29.0096 16.4668 28.1999V16.4667H28.1999C29.0096 16.4667 29.6668 15.8096 29.6668 14.9999C29.6668 14.1905 29.0096 13.5333 28.1999 13.5333Z" fill="white"/>
</g>
<defs>
<clipPath id="clip0_1922_550">
<rect width="29.3333" height="29.3333" fill="white" transform="translate(0.333344 0.333313)"/>
</clipPath>
</defs>
</svg>
