<svg width="32" height="24" viewBox="0 0 32 24" fill="none" xmlns="http://www.w3.org/2000/svg">
<path d="M31.2392 3.90543L31.2789 4.16677C30.8949 2.79477 29.8581 1.7361 28.5407 1.35077L28.5128 1.3441C26.0355 0.666766 16.0664 0.666766 16.0664 0.666766C16.0664 0.666766 6.12239 0.653433 3.61985 1.3441C2.27722 1.7361 1.23913 2.79477 0.861762 4.13877L0.855142 4.16677C-0.0704011 9.03477 -0.0770217 14.8841 0.896189 20.0961L0.855142 19.8321C1.23913 21.2041 2.2759 22.2628 3.59337 22.6481L3.62118 22.6548C6.09591 23.3334 16.0677 23.3334 16.0677 23.3334C16.0677 23.3334 26.0103 23.3334 28.5142 22.6548C29.8581 22.2628 30.8962 21.2041 31.2736 19.8601L31.2802 19.8321C31.7013 17.5681 31.9423 14.9628 31.9423 12.3014C31.9423 12.2041 31.9423 12.1054 31.9409 12.0068C31.9423 11.9161 31.9423 11.8081 31.9423 11.7001C31.9423 9.03743 31.7013 6.4321 31.2392 3.90543ZM12.8859 16.8681V7.1441L21.1827 12.0134L12.8859 16.8681Z" fill="white"/>
</svg>
